<svg width="16" height="17" viewBox="0 0 16 17" fill="none" xmlns="http://www.w3.org/2000/svg">
<path d="M13.4167 13.9417C14.6667 12.8083 14.6667 10.65 14.6667 9.66667C14.6667 8.78261 14.3155 7.93477 13.6904 7.30964C13.0652 6.68452 12.2174 6.33333 11.3333 6.33333C10.75 6.33333 10.1667 6.5 9.66667 6.8V3C9.66667 2.33696 9.40327 1.70107 8.93443 1.23223C8.46559 0.763392 7.82971 0.5 7.16667 0.5C6.54167 0.5 5.95833 0.741667 5.5 1.15C5.0419 0.739523 4.44843 0.512534 3.83333 0.512534C3.21823 0.512534 2.62477 0.739523 2.16667 1.15C1.70833 0.733333 1.11667 0.5 0.5 0.5V2.16667C0.721014 2.16667 0.932975 2.25446 1.08926 2.41074C1.24554 2.56702 1.33333 2.77899 1.33333 3V11.3333H3V3C3 2.77899 3.0878 2.56702 3.24408 2.41074C3.40036 2.25446 3.61232 2.16667 3.83333 2.16667C4.05435 2.16667 4.26631 2.25446 4.42259 2.41074C4.57887 2.56702 4.66667 2.77899 4.66667 3V11.3333H6.33333V3C6.33333 2.77899 6.42113 2.56702 6.57741 2.41074C6.73369 2.25446 6.94565 2.16667 7.16667 2.16667C7.38768 2.16667 7.59964 2.25446 7.75592 2.41074C7.9122 2.56702 8 2.77899 8 3V9.66667C8 10.65 8 12.8083 9.25 13.9417C8.6 14.2833 7.9 14.5333 7.16667 14.6667V16.3333C8.24167 16.3333 10.3667 15.2833 11.3333 14.775C12.3 15.2833 14.425 16.3333 15.5 16.3333V14.6667C14.7667 14.5333 14.0667 14.2833 13.4167 13.9417ZM11.3333 8C11.7754 8 12.1993 8.1756 12.5118 8.48816C12.8244 8.80072 13 9.22464 13 9.66667C13 12.1 12.55 13 11.3333 13C10.1167 13 9.66667 12.1 9.66667 9.66667C9.66667 9.22464 9.84226 8.80072 10.1548 8.48816C10.4674 8.1756 10.8913 8 11.3333 8Z" fill="white"/>
</svg>
