<svg width="19" height="16" viewBox="0 0 19 16" fill="none" xmlns="http://www.w3.org/2000/svg">
<path d="M4.41683 9.25004C5.28042 9.02433 6.92271 7.93058 7.3335 7.58337V4.66671L4.8335 3.83337C4.66233 3.15821 4.13121 1.79634 3.5835 1.33337L2.98007 3.21417C1.89604 3.69642 0.124977 5.87042 1.08349 8.41671C1.50016 9.25004 2.36554 12.1667 3.5835 14.25" stroke="white" stroke-width="1.44841" stroke-linecap="round" stroke-linejoin="round"/>
<path d="M9.00012 3.50224C10.8297 3.19953 14.6354 3.53249 15.2208 7.28595C15.3428 7.84095 15.1477 10.5036 13.3912 11.7144C13.0374 11.9583 12.7501 12.9999 12.7501 14.2499" stroke="white" stroke-width="1.44841" stroke-linecap="round" stroke-linejoin="round"/>
<path d="M9.83346 14.6667C9.83346 13.7462 9.08725 13 8.16679 13C7.24633 13 6.50012 13.7462 6.50012 14.6667" stroke="white" stroke-width="1.44841" stroke-linecap="round"/>
<path d="M15.2501 7.99996C15.4585 8.41663 16.3745 8.69558 17.0117 8.04233C17.3826 7.66204 17.6862 6.47242 16.7493 5.91663" stroke="white" stroke-width="1.44841" stroke-linecap="round" stroke-linejoin="round"/>
</svg>
